<svg height="512" viewBox="0 0 64 64" width="512" xmlns="http://www.w3.org/2000/svg"><g id="Elearning-monitor-screen-online-education"><path d="m61 48h-58v-30a2 2 0 0 1 2-2h54a2 2 0 0 1 2 2z" fill="#e9e9ea"/><path d="m6 19h52v26h-52z" fill="#2488ff"/><path d="m35 16h-6l.63-4.6a4.981 4.981 0 0 0 4.74 0z" fill="#57565c"/><circle cx="32" cy="8" fill="#898890" r="5"/><path d="m61 48v2a2.006 2.006 0 0 1 -2 2h-54a2.006 2.006 0 0 1 -2-2v-2z" fill="#acabb1"/><path d="m22 57h20v4h-20z" fill="#acabb1"/><path d="m29 52h6v5h-6z" fill="#787680"/><circle cx="32" cy="8" fill="#d80027" r="2"/><path d="m29.1 37.08-2.07 3.37-2.03-1.45h-11a4 4 0 0 0 -4 4v2h20l2.84-5.12z" fill="#3e3d42"/><path d="m22 39-3 4-3-4z" fill="#fff"/><path d="m21.29 35.44.71 3.56h-6l.71-3.56a4.962 4.962 0 0 0 4.58 0z" fill="#f0d0b4"/><path d="m24 27h-13a5 5 0 0 1 5-5 4.949 4.949 0 0 1 3.1 1.11 3.824 3.824 0 0 1 .9-.11 4 4 0 0 1 4 4z" fill="#6a563d"/><path d="m14 27h10a0 0 0 0 1 0 0v4a5 5 0 0 1 -5 5 5 5 0 0 1 -5-5v-4a0 0 0 0 1 0 0z" fill="#f5e0cd"/><g fill="#ffda44"><path d="m39 22h8v2h-8z"/><path d="m49 22h6v2h-6z"/><path d="m39 26h4v2h-4z"/><path d="m45 26h10v2h-10z"/><path d="m39 30h6v2h-6z"/><path d="m47 30h8v2h-8z"/><path d="m39 34h16v2h-16z"/><path d="m39 38h16v2h-16z"/></g><path d="m29 52h6v2h-6z" fill="#57565c"/><path d="m28.91 31h11.18v2h-11.18z" fill="#57565c" transform="matrix(.447 -.894 .894 .447 -9.551 48.547)"/><path d="m32.87 34.93a.913.913 0 0 1 .13.08 2.272 2.272 0 0 1 .84 3.07l-1 1.8-3.74-2.8.8-1.3a2.286 2.286 0 0 1 1.95-1.09 2.313 2.313 0 0 1 1.02.24z" fill="#f5e0cd"/></g></svg>